<mxfile host="app.diagrams.net" agent="Mozilla/5.0 (Windows NT 10.0; Win64; x64) AppleWebKit/537.36 (KHTML, like Gecko) Chrome/129.0.0.0 Safari/537.36 Edg/129.0.0.0" version="24.7.16">
  <diagram id="prtHgNgQTEPvFCAcTncT" name="Page-1">
    <mxGraphModel dx="1042" dy="695" grid="1" gridSize="10" guides="1" tooltips="1" connect="1" arrows="1" fold="1" page="1" pageScale="1" pageWidth="827" pageHeight="1169" math="0" shadow="0">
      <root>
        <mxCell id="0" />
        <mxCell id="1" parent="0" />
        <mxCell id="-1uGAca-wLTkCwMJhFo_-1" value="1" style="rounded=1;whiteSpace=wrap;html=1;strokeWidth=3;strokeColor=#66CC00;" vertex="1" parent="1">
          <mxGeometry x="130" y="370" width="80" height="50" as="geometry" />
        </mxCell>
        <mxCell id="-1uGAca-wLTkCwMJhFo_-2" value="2" style="rounded=1;whiteSpace=wrap;html=1;strokeWidth=3;strokeColor=#66CC00;" vertex="1" parent="1">
          <mxGeometry x="130" y="300" width="80" height="50" as="geometry" />
        </mxCell>
        <mxCell id="-1uGAca-wLTkCwMJhFo_-3" value="3" style="rounded=1;whiteSpace=wrap;html=1;strokeColor=#66CC00;strokeWidth=3;" vertex="1" parent="1">
          <mxGeometry x="130" y="230" width="80" height="50" as="geometry" />
        </mxCell>
        <mxCell id="-1uGAca-wLTkCwMJhFo_-4" value="4" style="rounded=1;whiteSpace=wrap;html=1;strokeColor=#66CC00;strokeWidth=3;" vertex="1" parent="1">
          <mxGeometry x="130" y="160" width="80" height="50" as="geometry" />
        </mxCell>
        <mxCell id="-1uGAca-wLTkCwMJhFo_-5" value="" style="line;strokeWidth=2;direction=south;html=1;" vertex="1" parent="1">
          <mxGeometry x="210" y="100" width="10" height="360" as="geometry" />
        </mxCell>
        <mxCell id="-1uGAca-wLTkCwMJhFo_-6" value="" style="line;strokeWidth=2;direction=south;html=1;" vertex="1" parent="1">
          <mxGeometry x="120" y="100" width="10" height="360" as="geometry" />
        </mxCell>
        <mxCell id="-1uGAca-wLTkCwMJhFo_-7" value="1" style="rounded=1;whiteSpace=wrap;html=1;strokeWidth=3;strokeColor=#66CC00;" vertex="1" parent="1">
          <mxGeometry x="330" y="460" width="80" height="50" as="geometry" />
        </mxCell>
        <mxCell id="-1uGAca-wLTkCwMJhFo_-8" value="2" style="rounded=1;whiteSpace=wrap;html=1;strokeWidth=3;strokeColor=#66CC00;" vertex="1" parent="1">
          <mxGeometry x="330" y="300" width="80" height="50" as="geometry" />
        </mxCell>
        <mxCell id="-1uGAca-wLTkCwMJhFo_-9" value="3" style="rounded=1;whiteSpace=wrap;html=1;strokeColor=#66CC00;strokeWidth=3;" vertex="1" parent="1">
          <mxGeometry x="330" y="230" width="80" height="50" as="geometry" />
        </mxCell>
        <mxCell id="-1uGAca-wLTkCwMJhFo_-10" value="4" style="rounded=1;whiteSpace=wrap;html=1;strokeColor=#66CC00;strokeWidth=3;" vertex="1" parent="1">
          <mxGeometry x="330" y="160" width="80" height="50" as="geometry" />
        </mxCell>
        <mxCell id="-1uGAca-wLTkCwMJhFo_-11" value="" style="line;strokeWidth=2;direction=south;html=1;" vertex="1" parent="1">
          <mxGeometry x="410" y="100" width="10" height="360" as="geometry" />
        </mxCell>
        <mxCell id="-1uGAca-wLTkCwMJhFo_-12" value="" style="line;strokeWidth=2;direction=south;html=1;" vertex="1" parent="1">
          <mxGeometry x="320" y="100" width="10" height="360" as="geometry" />
        </mxCell>
        <mxCell id="-1uGAca-wLTkCwMJhFo_-13" value="" style="curved=1;endArrow=classic;html=1;rounded=0;" edge="1" parent="1">
          <mxGeometry width="50" height="50" relative="1" as="geometry">
            <mxPoint x="380" y="525" as="sourcePoint" />
            <mxPoint x="270" y="585" as="targetPoint" />
            <Array as="points">
              <mxPoint x="380" y="525" />
              <mxPoint x="370" y="565" />
            </Array>
          </mxGeometry>
        </mxCell>
        <mxCell id="-1uGAca-wLTkCwMJhFo_-14" value="2" style="rounded=1;whiteSpace=wrap;html=1;strokeWidth=3;strokeColor=#66CC00;" vertex="1" parent="1">
          <mxGeometry x="580" y="360" width="80" height="50" as="geometry" />
        </mxCell>
        <mxCell id="-1uGAca-wLTkCwMJhFo_-15" value="3" style="rounded=1;whiteSpace=wrap;html=1;strokeColor=#66CC00;strokeWidth=3;" vertex="1" parent="1">
          <mxGeometry x="580" y="290" width="80" height="50" as="geometry" />
        </mxCell>
        <mxCell id="-1uGAca-wLTkCwMJhFo_-16" value="4" style="rounded=1;whiteSpace=wrap;html=1;strokeColor=#66CC00;strokeWidth=3;" vertex="1" parent="1">
          <mxGeometry x="580" y="230" width="80" height="50" as="geometry" />
        </mxCell>
        <mxCell id="-1uGAca-wLTkCwMJhFo_-17" value="" style="line;strokeWidth=2;direction=south;html=1;" vertex="1" parent="1">
          <mxGeometry x="660" y="100" width="10" height="360" as="geometry" />
        </mxCell>
        <mxCell id="-1uGAca-wLTkCwMJhFo_-18" value="" style="line;strokeWidth=2;direction=south;html=1;" vertex="1" parent="1">
          <mxGeometry x="570" y="100" width="10" height="360" as="geometry" />
        </mxCell>
        <mxCell id="-1uGAca-wLTkCwMJhFo_-19" value="4" style="rounded=1;whiteSpace=wrap;html=1;strokeColor=#66CC00;strokeWidth=3;" vertex="1" parent="1">
          <mxGeometry x="550" y="10" width="80" height="50" as="geometry" />
        </mxCell>
        <mxCell id="-1uGAca-wLTkCwMJhFo_-20" value="" style="curved=1;endArrow=classic;html=1;rounded=0;" edge="1" parent="1">
          <mxGeometry width="50" height="50" relative="1" as="geometry">
            <mxPoint x="600" y="60" as="sourcePoint" />
            <mxPoint x="610" y="170" as="targetPoint" />
            <Array as="points">
              <mxPoint x="600" y="60" />
              <mxPoint x="640" y="100" />
            </Array>
          </mxGeometry>
        </mxCell>
        <mxCell id="-1uGAca-wLTkCwMJhFo_-21" value="&lt;font style=&quot;font-size: 16px;&quot;&gt;队列&lt;/font&gt;&lt;div style=&quot;font-size: 16px;&quot;&gt;&lt;font style=&quot;font-size: 16px;&quot;&gt;queue&lt;/font&gt;&lt;/div&gt;" style="text;html=1;align=center;verticalAlign=middle;resizable=0;points=[];autosize=1;strokeColor=none;fillColor=none;fontSize=16;fontStyle=1" vertex="1" parent="1">
          <mxGeometry x="135" y="500" width="70" height="50" as="geometry" />
        </mxCell>
        <mxCell id="-1uGAca-wLTkCwMJhFo_-23" value="出队&lt;div&gt;pop&lt;/div&gt;" style="text;html=1;align=center;verticalAlign=middle;resizable=0;points=[];autosize=1;strokeColor=none;fillColor=none;fontSize=16;fontStyle=1" vertex="1" parent="1">
          <mxGeometry x="340" y="30" width="60" height="50" as="geometry" />
        </mxCell>
        <mxCell id="-1uGAca-wLTkCwMJhFo_-24" value="入队&lt;div&gt;push&lt;/div&gt;" style="text;html=1;align=center;verticalAlign=middle;resizable=0;points=[];autosize=1;strokeColor=none;fillColor=none;fontSize=16;fontStyle=1;labelBackgroundColor=default;" vertex="1" parent="1">
          <mxGeometry x="590" y="500" width="60" height="50" as="geometry" />
        </mxCell>
      </root>
    </mxGraphModel>
  </diagram>
</mxfile>
